<svg xmlns="http://www.w3.org/2000/svg" viewBox="0 0 24 24"><path fill="#30518C" d="M12,0C5.4,0,0,5.4,0,12c0,6.6,5.4,12,12,12c6.6,0,12-5.4,12-12C24,5.4,18.6,0,12,0z M19.2,18.9c-0.3-0.2-0.7-0.5-1.2-0.8c-1-0.5-2.4-1.7-4.5-2.1c0.5-0.6,0.9-1.6,1.4-2.8c0.2-0.7,0.2-1.3,0.2-2.1c0-0.6,0.1-1.5,0-2.1c-0.5-1.8-1.6-2.3-3-2.3c-1.4,0-2.6,0.5-3,2.3c-0.1,0.6,0,1.5,0,2.1c0,0.8,0,1.4,0.2,2.1c0.4,1.1,0.8,2.1,1.4,2.8c-2.1,0.4-3.5,1.6-4.5,2.1c-0.5,0.3-0.9,0.5-1.2,0.8C3.1,17.1,2,14.7,2,12C2,6.5,6.5,2,12,2c5.5,0,10,4.5,10,10C22,14.7,20.9,17.1,19.2,18.9z"/></svg>