<svg xmlns="http://www.w3.org/2000/svg" viewBox="0 0 24 24"><g><path fill="#30518C" d="M12,0C5.4,0,0,5.4,0,12c0,6.6,5.4,12,12,12c6.6,0,12-5.4,12-12C24,5.4,18.6,0,12,0z M12,22C6.5,22,2,17.5,2,12C2,6.5,6.5,2,12,2c5.5,0,10,4.5,10,10C22,17.5,17.5,22,12,22z"/><path fill="#30518C" d="M6.5,10.7C7.4,8.5,9.5,7,12,7c2.5,0,4.6,1.5,5.5,3.7h2.1C18.7,7.4,15.6,5,12,5c-3.6,0-6.7,2.4-7.7,5.7H6.5z"/><path fill="#30518C" d="M12.8,14.1V10c0-0.4-0.3-0.8-0.8-0.8c-0.4,0-0.8,0.3-0.8,0.8v4.1c-1,0.3-1.8,1.3-1.8,2.4c0,1.4,1.1,2.5,2.5,2.5c1.4,0,2.5-1.1,2.5-2.5C14.5,15.4,13.8,14.5,12.8,14.1z"/></g></svg>