<svg xmlns="http://www.w3.org/2000/svg" width="90px" height="12px"><g><g><path fill="#4865B7" d="M9.5,1h-6C2.4,1,1,1.9,1,3v0v8h2V7h6v4h2V3v0C11,1.9,10.6,1,9.5,1z M9,5H3V3h6V5z"/><path fill="#4865B7" d="M53.5,1h-6C46.4,1,45,1.9,45,3v0v8h2V3h6v1h2V3v0C55,1.9,54.6,1,53.5,1z"/><polygon fill="#4865B7" points="55,13 53,11 53,8 55,8"/><path fill="#4865B7" d="M31.5,1L31.5,1h-6H23v10h2V7h6.5h0C32.6,7,33,6.1,33,5V3C33,1.9,32.6,1,31.5,1z M31,5h-6V3h6V5z"/><path fill="#4865B7" d="M78.5,1L78.5,1h-6H70v10h2V7h6.5h0C79.6,7,80,6.1,80,5V3C80,1.9,79.6,1,78.5,1z M78,5h-6V3h6V5z"/><path fill="#4865B7" d="M64.5,1L64.5,1h-6H56v4h-7.5l2,2H56v4h2V7h6.5h0C65.6,7,66,6.1,66,5V3C66,1.9,65.6,1,64.5,1z M64,5h-6V3h6V5z"/><polygon fill="#4865B7" points="42,1 42,5 36,5 36,1 34,1 34,11 36,11 36,7 42,7 42,11 44,11 44,1"/><rect x="67" y="1" fill="#4865B7" width="2" height="10"/><polygon fill="#4865B7" points="14,9 14,1 12,1 12,11 14.5,11 22,11 22,9"/><polygon fill="#4865B7" points="91,3 91,1 83.5,1 81,1 81,11 83.5,11 91,11 91,9 83,9 83,7 89,7 89,5 83,5 83,3"/></g><g><g><path fill="#FFFFFF" d="M8.5,0h-6C1.4,0,0,0.9,0,2v0v8h2V6h6v4h2V2v0C10,0.9,9.6,0,8.5,0z M8,4H2V2h6V4z"/><path fill="#FFFFFF" d="M52.5,0h-6C45.4,0,44,0.9,44,2v0v8h2V2h6v1h2V2v0C54,0.9,53.6,0,52.5,0z"/><polygon fill="#FFFFFF" points="54,12 52,10 52,7 54,7"/><path fill="#FFFFFF" d="M30.5,0L30.5,0h-6H22v10h2V6h6.5h0C31.6,6,32,5.1,32,4V2C32,0.9,31.6,0,30.5,0z M30,4h-6V2h6V4z"/><path fill="#FFFFFF" d="M77.5,0L77.5,0h-6H69v10h2V6h6.5h0C78.6,6,79,5.1,79,4V2C79,0.9,78.6,0,77.5,0z M77,4h-6V2h6V4z"/><path fill="#FFFFFF" d="M63.5,0L63.5,0h-6H55v4h-7.5l2,2H55v4h2V6h6.5h0C64.6,6,65,5.1,65,4V2C65,0.9,64.6,0,63.5,0z M63,4h-6V2h6V4z"/><polygon fill="#FFFFFF" points="41,0 41,4 35,4 35,0 33,0 33,10 35,10 35,6 41,6 41,10 43,10 43,0"/><rect x="66" fill="#FFFFFF" width="2" height="10"/><polygon fill="#FFFFFF" points="13,8 13,0 11,0 11,10 13.5,10 21,10 21,8"/><polygon fill="#FFFFFF" points="90,2 90,0 82.5,0 80,0 80,10 82.5,10 90,10 90,8 82,8 82,6 88,6 88,4 82,4 82,2"/></g></g></g></svg>