<svg xmlns="http://www.w3.org/2000/svg"width="16px" height="16px"><path fill-rule="evenodd" clip-rule="evenodd" fill="#FFFFFF" d="M6.2,0C2.8,0,0,2.9,0,6.4c0,3.5,2.8,6.4,6.2,6.4	c1.5,0,2.8-0.5,3.9-1.4c0,0.1,0.1,0.2,0.2,0.3l3.9,4c0.2,0.2,0.5,0.3,0.8,0.3c0.3,0,0.6-0.1,0.8-0.3c0.4-0.4,0.4-1.2,0-1.6l-3.9-4 c-0.1-0.1-0.2-0.2-0.4-0.2c0.6-1,0.9-2.2,0.9-3.4C12.4,2.9,9.6,0,6.2,0z M6.2,2c2.4,0,4.3,2,4.3,4.4c0,0.8-0.2,1.6-0.6,2.4L9.5,9.4 L8.9,9.9c-0.8,0.7-1.7,1-2.7,1c-2.4,0-4.3-2-4.3-4.4C1.9,4,3.8,2,6.2,2z"/></svg>