<svg xmlns="http://www.w3.org/2000/svg" width="34px" height="33px"><g><g><path fill-rule="evenodd" clip-rule="evenodd" fill="#FFFFFF" d="M12.2-1C4.9-1-1,4.9-1,12.3c0,7.3,5.9,13.2,13.2,13.2c3.1,0,6-1.1,8.3-2.9c0.1,0.2,0.2,0.4,0.3,0.5l8.2,8.2c0.4,0.5,1,0.7,1.6,0.7c0.6,0,1.2-0.2,1.6-0.7c0.9-0.9,0.9-2.4,0-3.3l-8.2-8.2c-0.2-0.2-0.5-0.4-0.8-0.5c1.3-2,2-4.4,2-7C25.4,4.9,19.5-1,12.2-1z M12.2,3.1c5,0,9.1,4.1,9.1,9.2c0,1.7-0.5,3.4-1.4,4.9l-0.8,1.3l-1.2,0.9c-1.7,1.3-3.6,2-5.7,2c-5,0-9.1-4.1-9.1-9.2C3.1,7.2,7.2,3.1,12.2,3.1z"/></g><g><g><path fill-rule="evenodd" clip-rule="evenodd" fill="#6C787C" d="M13.2,0C5.9,0,0,5.9,0,13.3c0,7.3,5.9,13.2,13.2,13.2c3.1,0,6-1.1,8.3-2.9c0.1,0.2,0.2,0.4,0.3,0.5l8.2,8.2c0.4,0.5,1,0.7,1.6,0.7c0.6,0,1.2-0.2,1.6-0.7c0.9-0.9,0.9-2.4,0-3.3l-8.2-8.2c-0.2-0.2-0.5-0.4-0.8-0.5c1.3-2,2-4.4,2-7C26.4,5.9,20.5,0,13.2,0z M13.2,4.1c5,0,9.1,4.1,9.1,9.2c0,1.7-0.5,3.4-1.4,4.9l-0.8,1.3l-1.2,0.9c-1.7,1.3-3.6,2-5.7,2c-5,0-9.1-4.1-9.1-9.2C4.1,8.2,8.2,4.1,13.2,4.1z"/></g></g></g></svg>